<?xml version="1.0" encoding="UTF-8" standalone="no"?>
<!DOCTYPE svg PUBLIC "-//W3C//DTD SVG 1.1//EN" "http://www.w3.org/Graphics/SVG/1.1/DTD/svg11.dtd">
<svg width="100%" height="100%" viewBox="0 0 489 489" version="1.1" xmlns="http://www.w3.org/2000/svg" xmlns:xlink="http://www.w3.org/1999/xlink" xml:space="preserve" xmlns:serif="http://www.serif.com/" style="fill-rule:evenodd;clip-rule:evenodd;stroke-linejoin:round;stroke-miterlimit:2;">
    <g transform="matrix(1,0,0,1,-652.195,-543.064)">
        <g transform="matrix(1,0,0,1,346.667,212.232)">
            <path d="M549.717,330.832C414.946,330.832 305.528,440.25 305.528,575.022C305.528,709.794 414.946,819.211 549.717,819.211C684.489,819.211 793.907,709.794 793.907,575.022C793.907,440.25 684.489,330.832 549.717,330.832ZM549.717,362.559C666.979,362.559 762.18,457.76 762.18,575.022C762.18,692.283 666.979,787.484 549.717,787.484C432.456,787.484 337.255,692.283 337.255,575.022C337.255,457.76 432.456,362.559 549.717,362.559Z" style="fill:white;"/>
        </g>
        <g transform="matrix(0.796899,0,0,0.796899,458.416,277.958)">
            <path d="M392.5,512.196L535.746,653.337C543.437,660.915 555.767,660.981 563.538,653.485L707.783,514.344C715.691,506.716 715.918,494.104 708.29,486.196C700.663,478.289 688.05,478.062 680.143,485.689L549.865,611.357C549.865,611.357 420.443,483.837 420.443,483.837C412.617,476.126 400.003,476.219 392.292,484.045C384.581,491.871 384.674,504.485 392.5,512.196Z" style="fill:white;"/>
        </g>
        <g transform="matrix(-0.796899,9.7592e-17,-9.7592e-17,-0.796899,1335.35,1292.55)">
            <path d="M392.5,512.196L535.746,653.337C543.437,660.915 555.767,660.981 563.538,653.485L707.783,514.344C715.691,506.716 715.918,494.104 708.29,486.196C700.663,478.289 688.05,478.062 680.143,485.689L549.865,611.357C513.946,575.966 420.443,483.837 420.443,483.837C412.617,476.126 400.003,476.219 392.292,484.045C384.581,491.871 384.674,504.485 392.5,512.196Z" style="fill:white;"/>
        </g>
    </g>
</svg>
