<?xml version="1.0" encoding="UTF-8" standalone="no"?>
<!DOCTYPE svg PUBLIC "-//W3C//DTD SVG 1.1//EN" "http://www.w3.org/Graphics/SVG/1.1/DTD/svg11.dtd">
<svg width="100%" height="100%" viewBox="0 0 489 489" version="1.1" xmlns="http://www.w3.org/2000/svg" xmlns:xlink="http://www.w3.org/1999/xlink" xml:space="preserve" xmlns:serif="http://www.serif.com/" style="fill-rule:evenodd;clip-rule:evenodd;stroke-linejoin:round;stroke-miterlimit:2;">
    <g transform="matrix(1,0,0,1,-305.528,-334.397)">
        <g transform="matrix(1,0,0,1,0,3.56524)">
            <path d="M549.717,330.832C414.946,330.832 305.528,440.25 305.528,575.022C305.528,709.794 414.946,819.211 549.717,819.211C684.489,819.211 793.907,709.794 793.907,575.022C793.907,440.25 684.489,330.832 549.717,330.832ZM549.717,362.559C666.979,362.559 762.18,457.76 762.18,575.022C762.18,692.283 666.979,787.484 549.717,787.484C432.456,787.484 337.255,692.283 337.255,575.022C337.255,457.76 432.456,362.559 549.717,362.559Z" style="fill:white;"/>
        </g>
        <path d="M713.826,510.731C713.826,491.647 698.333,476.153 679.249,476.153C679.249,476.153 420.186,476.153 420.186,476.153C401.102,476.153 385.608,491.647 385.608,510.731C385.608,510.731 385.608,660.443 385.608,660.443C385.608,679.527 401.102,695.021 420.186,695.021L679.249,695.021C698.333,695.021 713.826,679.527 713.826,660.443C713.826,660.443 713.826,510.731 713.826,510.731ZM417.335,530.99L417.335,660.443C417.335,662.017 418.613,663.294 420.186,663.294C420.186,663.294 679.249,663.294 679.249,663.294C680.822,663.294 682.099,662.017 682.099,660.443L682.099,533.501L560.731,650.575C554.538,656.548 544.712,656.496 538.584,650.457L417.335,530.99ZM662.961,507.88L439.085,507.88L549.835,617.003L662.961,507.88Z" style="fill:white;"/>
    </g>
</svg>
