<svg xmlns="http://www.w3.org/2000/svg" viewBox="0 0 317.2 297.59"><defs><style>.cls-1{fill:#fff;}</style></defs><g id="Calque_2" data-name="Calque 2"><g id="Calque_1-2" data-name="Calque 1"><g id="logo"><path id="O" class="cls-1" d="M56.49,265.16l3.63,2.25.4-.6c-2.55-1.78-5.14-3.51-7.63-5.37-1.77-1.33-3.35-2.91-5.11-4.25-2.14-1.63-4.43-3.06-6.54-4.72a27,27,0,0,1-2.81-3c-.79-.86-1.59-1.7-2.39-2.55-3.17-3.32-6.68-6.39-9.43-10A132.53,132.53,0,0,1,8.66,205.93c-3.89-9.78-7-19.89-8.15-30.3-.92-8.23-.34-16.65-.2-25a87.07,87.07,0,0,1,1-12c.87-5.77,1.86-11.55,3.21-17.23a138.37,138.37,0,0,1,12.8-34.16,209.08,209.08,0,0,1,16.5-26.49A140.91,140.91,0,0,1,53,40.79,184.13,184.13,0,0,1,75.09,24.12,141.45,141.45,0,0,1,117.46,5.66,167.58,167.58,0,0,1,137.09,1.6,194.16,194.16,0,0,1,159.7,0a101,101,0,0,1,44.57,9.61,21.09,21.09,0,0,1,9.16,7.32c1.54,2.31,4.58,3.7,7.09,5.29,7.87,5,16,9.66,23.66,14.91,5.71,3.89,11,8.43,16.35,12.83a117.82,117.82,0,0,1,10,9,156.78,156.78,0,0,1,11,12.49c5.83,7.48,11.73,15,16.92,22.87a92.4,92.4,0,0,1,11.45,24.47c2.39,8.1,4.64,16.26,6.55,24.48a48.29,48.29,0,0,1,.83,10.9,128.79,128.79,0,0,1-.68,14.71c-.76,6.56-1.71,13.13-3.11,19.58-1.56,7.17-3.59,14.25-5.66,21.3-.66,2.28-2.12,4.31-3.13,6.5-1.25,2.71-2.15,5.61-3.66,8.16-2.36,4-5,7.72-7.71,11.49-1.16,1.63-2.61,3.06-3.91,4.59-2.49,3-4.75,6.17-7.51,8.88-3.82,3.75-7.95,7.21-12.05,10.67a118.33,118.33,0,0,1-11.55,9.24,193.24,193.24,0,0,1-18.35,10.6c-6.54,3.29-13.38,6-20.1,8.92a4,4,0,0,1-.5.09c-6.67,1.88-13.27,4.08-20,5.55A154.11,154.11,0,0,1,181.07,297a117.6,117.6,0,0,1-15.13.52c-5.85-.2-11.69-.91-17.54-1.45-5.18-.48-10.44-.62-15.51-1.66-9.43-1.92-18.79-4.19-28.08-6.7a190.38,190.38,0,0,1-33.47-13c-5.28-2.58-10.16-6-15.22-9ZM245.4,60.35,238,54.19l-.36.82c-6.61-4.28-13-9-19.89-12.73a194.67,194.67,0,0,0-23.49-10.79c-6.09-2.32-12.6-3.6-19-5a80.61,80.61,0,0,0-12.57-1.78c-7.91-.51-15.76.41-23.62,1.39a133,133,0,0,0-27.13,6.24C105.63,34.5,99.48,37,93.34,39.52A84.08,84.08,0,0,0,83,44.34a80.15,80.15,0,0,0-8.47,6c-4.32,3.29-8.92,6.33-12.76,10.11A125.16,125.16,0,0,0,49.05,75.24,151.1,151.1,0,0,0,36.42,94.52a217.33,217.33,0,0,0-11,25.1,102.82,102.82,0,0,0-4.44,17.68c-1.09,6-1.51,12.14-2.21,18.22a79.87,79.87,0,0,0,1,25.21,97.94,97.94,0,0,0,13,33A114.49,114.49,0,0,0,44,229.07c6,6.72,12.63,12.91,20.5,17.54,6.14,3.6,12.08,7.59,18.46,10.69,13.27,6.45,27.27,10.92,41.63,14.36,11.62,2.79,23.43,4,35.28,4.72a118.52,118.52,0,0,0,18.74-.48,167,167,0,0,0,21.62-3.25,143.34,143.34,0,0,0,48.14-21,118.61,118.61,0,0,0,23.84-20.77,95.13,95.13,0,0,0,16.55-27c3.67-9.19,5.59-18.79,7.31-28.47,1.78-10,2.57-19.88,1-30a112.46,112.46,0,0,0-9.8-31.34A171.86,171.86,0,0,0,270,86.2c-2.84-3.82-6.57-7-9.14-11-3-4.63-7-8-11.07-11.46-1.08-.91-2.28-1.69-3.43-2.54Z"/><path id="K" class="cls-1" d="M164.25,119.11c-2.09.15-4.18.27-6.26.46-7.9.69-15.79,1.42-23.68,2.12-3.85.34-7.69.68-11.55,1a90.14,90.14,0,0,1-10,.5c-5.81-.26-11.55.55-17.43-1.68-4.11-1.55-8.35-2.75-12.09-5.1A30,30,0,0,1,78.08,112c-3-3-1.92-9.25,3.14-10.09a80.08,80.08,0,0,1,9.58-1.28c7.19-.34,14.4-.26,21.58-.66,9.06-.5,18.11-1.25,27.15-2,9.85-.81,19.67-1.89,29.53-2.54,8.78-.58,17.6-1.21,26.38-.94a193.7,193.7,0,0,1,28.68,2.66,124.31,124.31,0,0,1,33,11.36,150.37,150.37,0,0,1,14,7.62,19.1,19.1,0,0,1,7.27,8c1.35,2.88,1.28,5.74-.73,7.94a7.86,7.86,0,0,1-8.56,2.12c-6.64-2.22-13.19-4.76-19.88-6.85-7.58-2.37-15.2-4.73-22.94-6.44-6.53-1.44-13.25-2-19.9-2.82a2.56,2.56,0,0,0-2,.65c-.25.29.19,1.31.5,1.91,2.38,4.56,7.14,6.37,11,9.19,12.25,9,25.13,17.26,35.81,28.29,2.66,2.74,5.53,5.35,7.73,8.44,1.37,1.91,3.53,3.82,2.62,6.92-.62,2.14-3.84,4.62-6,4.25-4.83-.81-8.9-3.35-12.76-6-11.43-7.92-22.63-16.19-34-24.12a170.61,170.61,0,0,0-14.77-9,5.26,5.26,0,0,0-4.3.15c-5.58,3-11,6.44-16.53,9.5a137.68,137.68,0,0,1-13.76,6.85c-11.33,4.65-22.69,9.26-34.23,13.38a127.84,127.84,0,0,1-19.85,5.17,215.11,215.11,0,0,1-22.91,2.8,55.33,55.33,0,0,1-13-.77c-7.66-1.27-15.27-2.91-22.85-4.63a42.63,42.63,0,0,1-7.52-2.87c-2.1-.92-3.25-2.6-2.69-5,.49-2.07,1.61-3.39,4.06-3.37,10.52,0,21.05.27,31.56-.1,11.55-.41,23.11-1.2,34.15-5.11a177.6,177.6,0,0,0,33.5-15.73,165.5,165.5,0,0,0,19.87-14.1,57.71,57.71,0,0,0,4.87-5.13Z"/><path id="N" class="cls-1" d="M92.58,234.11c1.76,1.47,2.92,2.34,4,3.33,1.32,1.27,1.58,2.55.12,4.08-3,3.15-3.33,3-6.83-.07-3-2.65-6.44-4.76-9.62-7.2-3.51-2.69-7-5.35-10.37-8.26a52.37,52.37,0,0,0-16.06-10.08c-3.78-1.42-7.38-3.43-9.85-6.93a11.67,11.67,0,0,1,8.46-18.61A22.33,22.33,0,0,1,65.16,193c9.24,4.71,16.71,11.85,25.19,17.57,9,6.07,18.34,11.59,27.44,17.49,9.27,6,19.44,9.89,29.94,13,2.32.7,4.7,1.23,7.67,2-1-3.42-1.6-6.52-2.66-9.47-3.28-9.05-2.3-17.89,2-26.18a91.53,91.53,0,0,1,10.18-15.11,90.25,90.25,0,0,1,11-11.12,23.2,23.2,0,0,1,12.79-5.24,98.61,98.61,0,0,1,15-1,81.06,81.06,0,0,1,15.81,2.15c2.11.5,3.78,2.89,5.64,4.44.18.15.22.51.42.62,3.42,1.78.48,2.28-.77,3.24l2.6.85c-4.65,1.79-9.06,3.55-13.54,5.15-1.87.67-3.94.79-5.81,1.48-4.78,1.76-9.59,3.49-14.18,5.66-2.19,1-3.87,3.1-5.85,4.61-4.46,3.38-6.56,8.39-8.53,13.24-3,7.46-3.78,15.13-.6,23,1.69,4.17,3.59,8.41,2.74,13.3a11.26,11.26,0,0,1-10,9.8c-5.75.82-11.18-.76-16.63-2.34-11.51-3.34-22.44-8.13-33.23-13.26-8.55-4.07-17-8.38-25.54-12.49C95.41,234,94.29,234.23,92.58,234.11Z"/><path id="I" class="cls-1" d="M173.93,85.54c-7.36,0-14.73-.14-22.09,0S137,86,129.55,86.62q-12.45,1-24.84,2.6c-2.51.33-4.84,1.84-7.32,2.61a31.8,31.8,0,0,1-14,1c-5.62-.75-9.22-4-11.44-8.74a11,11,0,0,1,1.27-11.85c3-3.9,7-5.62,12.27-5.1,6,.6,12.06.31,18.09.4.34,0,.69,0,1,0,7.94-.33,15.87-.73,23.81-1s15.89-.49,23.83-.5c8.13,0,16.27,0,24.39.46,6.78.36,13.56,1.12,20.28,2.12,2.56.38,5.34,1.34,6.6,4.2,2.09,4.76-.62,8.84-4.8,9.49-5.76.91-11.58,1.49-17.38,2.17-2.46.29-4.93.48-7.39.71Z"/><path id="ipoint" class="cls-1" d="M222.21,79.79c-3,0-5.78-3.08-5.8-6.41,0-4.19,3.19-6.12,6.08-6.33,2.69-.2,6.45,3.26,6.57,5.73C229.24,76.32,225.89,79.75,222.21,79.79Z"/></g></g></g></svg>