<?xml version="1.0" encoding="UTF-8" standalone="no"?>
<!DOCTYPE svg PUBLIC "-//W3C//DTD SVG 1.1//EN" "http://www.w3.org/Graphics/SVG/1.1/DTD/svg11.dtd">
<svg width="100%" height="100%" viewBox="0 0 489 489" version="1.1" xmlns="http://www.w3.org/2000/svg" xmlns:xlink="http://www.w3.org/1999/xlink" xml:space="preserve" xmlns:serif="http://www.serif.com/" style="fill-rule:evenodd;clip-rule:evenodd;stroke-linejoin:round;stroke-miterlimit:2;">
    <g transform="matrix(1,0,0,1,-158.601,-98.6346)">
        <g transform="matrix(0.943218,0,0,1.31347,1163.21,45.8384)">
            <g transform="matrix(1.0602,0,0,0.76134,-1389,-211.68)">
                <path d="M549.717,330.832C414.946,330.832 305.528,440.25 305.528,575.022C305.528,709.794 414.946,819.211 549.717,819.211C684.489,819.211 793.907,709.794 793.907,575.022C793.907,440.25 684.489,330.832 549.717,330.832ZM549.717,362.559C666.979,362.559 762.18,457.76 762.18,575.022C762.18,692.283 666.979,787.484 549.717,787.484C432.456,787.484 337.255,692.283 337.255,575.022C337.255,457.76 432.456,362.559 549.717,362.559Z"/>
            </g>
        </g>
        <g transform="matrix(0.943218,0,0,1.31347,1163.21,45.8384)">
            <g transform="matrix(5.17335e-17,-0.606711,1.39322,6.12621e-17,-1557.63,562.493)">
                <path d="M389.519,504.344L532.764,645.485C536.37,649.037 542.744,651.209 549.623,651.229C556.501,651.249 562.909,649.114 566.57,645.582L710.816,506.441C716.663,500.801 713.859,493.343 704.558,489.797C695.256,486.251 682.957,487.951 677.11,493.592L549.897,616.303C549.897,616.303 423.425,491.689 423.425,491.689C417.666,486.015 405.395,484.244 396.038,487.736C386.681,491.228 383.76,498.67 389.519,504.344Z"/>
            </g>
        </g>
    </g>
</svg>
