<?xml version="1.0" encoding="UTF-8" standalone="no"?>
<!DOCTYPE svg PUBLIC "-//W3C//DTD SVG 1.1//EN" "http://www.w3.org/Graphics/SVG/1.1/DTD/svg11.dtd">
<svg width="100%" height="100%" viewBox="0 0 489 489" version="1.1" xmlns="http://www.w3.org/2000/svg" xmlns:xlink="http://www.w3.org/1999/xlink" xml:space="preserve" xmlns:serif="http://www.serif.com/" style="fill-rule:evenodd;clip-rule:evenodd;stroke-linejoin:round;stroke-miterlimit:2;">
    <g transform="matrix(1,0,0,1,-234.836,-882.405)">
        <g transform="matrix(0.943218,0,0,1.31347,1163.21,45.8384)">
            <g transform="matrix(1.0602,0,0,0.76134,-1308.18,385.035)">
                <path d="M549.717,330.832C414.946,330.832 305.528,440.25 305.528,575.022C305.528,709.794 414.946,819.211 549.717,819.211C684.489,819.211 793.907,709.794 793.907,575.022C793.907,440.25 684.489,330.832 549.717,330.832ZM549.717,362.559C666.979,362.559 762.18,457.76 762.18,575.022C762.18,692.283 666.979,787.484 549.717,787.484C432.456,787.484 337.255,692.283 337.255,575.022C337.255,457.76 432.456,362.559 549.717,362.559Z" style="fill:white;"/>
            </g>
        </g>
        <g transform="matrix(0.943218,0,0,1.31347,1163.21,45.8384)">
            <g transform="matrix(1.0602,0,0,0.76134,-1129.72,405.744)">
                <path d="M438.725,450.024L436.704,449.043L423.089,477.7C454.968,492.846 475.292,522.865 475.292,555.839C475.292,604.158 432.642,642.85 380.354,644.045L377.857,644.074C324.433,644.074 280.421,604.924 280.421,555.839C280.421,522.865 300.745,492.846 332.624,477.7L319.009,449.043C275.632,469.652 248.694,510.972 248.694,555.839C248.694,621.663 306.215,675.801 377.857,675.801L381.204,675.761C451.279,674.109 507.019,620.636 507.019,555.839C507.019,511.672 480.915,470.942 438.725,450.024Z" style="fill:white;"/>
            </g>
        </g>
        <g transform="matrix(0.943218,0,0,1.31347,1163.21,45.8384)">
            <g transform="matrix(1.0602,0,0,0.458768,-1151.78,539.569)">
                <path d="M382.803,398.656L382.803,597.507C382.803,612.037 389.911,623.833 398.667,623.833C407.422,623.833 414.53,612.037 414.53,597.507L414.53,398.656C414.53,384.126 407.422,372.33 398.667,372.33C389.911,372.33 382.803,384.126 382.803,398.656Z" style="fill:white;"/>
            </g>
        </g>
    </g>
</svg>
