<?xml version="1.0" encoding="UTF-8" standalone="no"?>
<!DOCTYPE svg PUBLIC "-//W3C//DTD SVG 1.1//EN" "http://www.w3.org/Graphics/SVG/1.1/DTD/svg11.dtd">
<svg width="100%" height="100%" viewBox="0 0 489 489" version="1.1" xmlns="http://www.w3.org/2000/svg" xmlns:xlink="http://www.w3.org/1999/xlink" xml:space="preserve" xmlns:serif="http://www.serif.com/" style="fill-rule:evenodd;clip-rule:evenodd;stroke-linejoin:round;stroke-miterlimit:2;">
    <g transform="matrix(1,0,0,1,693.139,-75.8878)">
        <g transform="matrix(-1,0,0,1,100.768,-254.944)">
            <path d="M549.717,330.832C684.489,330.832 793.907,440.25 793.907,575.022C793.907,709.794 684.489,819.211 549.717,819.211C414.946,819.211 305.528,709.794 305.528,575.022C305.528,440.25 414.946,330.832 549.717,330.832ZM549.717,362.559C432.456,362.559 337.255,457.76 337.255,575.022C337.255,692.283 432.456,787.484 549.717,787.484C666.979,787.484 762.18,692.283 762.18,575.022C762.18,457.76 666.979,362.559 549.717,362.559Z"/>
        </g>
        <g transform="matrix(-4.8796e-17,-0.796899,-1.31411,8.04662e-17,259.817,761.912)">
            <path d="M423.425,491.689L549.897,616.303C549.897,616.303 677.11,493.592 677.11,493.592C682.957,487.951 695.256,486.251 704.558,489.797C713.859,493.343 716.663,500.801 710.816,506.441L566.57,645.582C562.909,649.114 556.501,651.249 549.623,651.229C542.744,651.209 536.37,649.037 532.764,645.485L389.519,504.344C383.76,498.67 386.681,491.228 396.038,487.736C405.395,484.244 417.666,486.015 423.425,491.689Z"/>
        </g>
    </g>
</svg>
