<?xml version="1.0" encoding="UTF-8" standalone="no"?>
<!DOCTYPE svg PUBLIC "-//W3C//DTD SVG 1.1//EN" "http://www.w3.org/Graphics/SVG/1.1/DTD/svg11.dtd">
<svg width="100%" height="100%" viewBox="0 0 489 489" version="1.1" xmlns="http://www.w3.org/2000/svg" xmlns:xlink="http://www.w3.org/1999/xlink" xml:space="preserve" xmlns:serif="http://www.serif.com/" style="fill-rule:evenodd;clip-rule:evenodd;stroke-linejoin:round;stroke-miterlimit:2;">
    <g transform="matrix(1,0,0,1,-1512.97,-1060.45)">
        <path d="M1757.16,1060.45C1622.39,1060.45 1512.97,1169.86 1512.97,1304.63C1512.97,1439.41 1622.39,1548.83 1757.16,1548.83C1891.93,1548.83 2001.35,1439.41 2001.35,1304.63C2001.35,1169.86 1891.93,1060.45 1757.16,1060.45ZM1757.16,1092.17C1874.42,1092.17 1969.63,1187.37 1969.63,1304.63C1969.63,1421.9 1874.42,1517.1 1757.16,1517.1C1639.9,1517.1 1544.7,1421.9 1544.7,1304.63C1544.7,1187.37 1639.9,1092.17 1757.16,1092.17ZM1761.76,1222.19C1760.29,1222.1 1758.81,1222.06 1757.32,1222.06C1666.79,1220.58 1593.29,1293.4 1593.29,1293.4C1587.55,1299.13 1587.05,1308.26 1592.13,1314.58C1638.91,1372.77 1688.66,1395.98 1734.94,1400.66C1831.15,1410.4 1913.84,1337.63 1929.37,1322.52C1936.57,1315.51 1936.63,1308.83 1936.63,1308.63C1936.63,1308.32 1936.62,1301.18 1928.75,1294.47C1914.57,1282.4 1840.68,1225.51 1761.76,1222.19ZM1684.32,1269.85C1658.61,1281.35 1638.23,1296.45 1626.56,1306.16L1626.56,1306.16C1652.71,1335.49 1679.54,1353.01 1705.88,1362.03C1688.69,1347.46 1677.77,1325.72 1677.77,1301.44C1677.77,1290.22 1680.11,1279.54 1684.32,1269.85ZM1830.5,1271.01C1834.4,1280.38 1836.55,1290.66 1836.55,1301.44C1836.55,1324.49 1826.72,1345.25 1811.01,1359.76C1849.29,1346.55 1880.1,1323.5 1896.56,1309.44C1882.54,1298.96 1858.88,1283.11 1830.5,1271.01ZM1757.03,1253.78C1758.02,1253.8 1759.01,1253.83 1760,1253.87C1784.99,1255.34 1804.83,1276.09 1804.83,1301.44C1804.83,1327.75 1783.47,1349.11 1757.16,1349.11C1730.86,1349.11 1709.5,1327.75 1709.5,1301.44C1709.5,1275.18 1730.79,1253.85 1757.03,1253.78Z" style="fill:white;"/>
    </g>
</svg>
