<?xml version="1.0" encoding="UTF-8" standalone="no"?>
<!DOCTYPE svg PUBLIC "-//W3C//DTD SVG 1.1//EN" "http://www.w3.org/Graphics/SVG/1.1/DTD/svg11.dtd">
<svg width="100%" height="100%" viewBox="0 0 489 489" version="1.1" xmlns="http://www.w3.org/2000/svg" xmlns:xlink="http://www.w3.org/1999/xlink" xml:space="preserve" xmlns:serif="http://www.serif.com/" style="fill-rule:evenodd;clip-rule:evenodd;stroke-linejoin:round;stroke-miterlimit:2;">
    <g transform="matrix(1,0,0,1,-232.194,-98.0641)">
        <g transform="matrix(0.943218,0,0,1.31347,1163.21,45.8384)">
            <g transform="matrix(1.0602,0,0,0.76134,-1310.98,-212.114)">
                <path d="M549.717,330.832C414.946,330.832 305.528,440.25 305.528,575.022C305.528,709.794 414.946,819.211 549.717,819.211C684.489,819.211 793.907,709.794 793.907,575.022C793.907,440.25 684.489,330.832 549.717,330.832ZM549.717,362.559C666.979,362.559 762.18,457.76 762.18,575.022C762.18,692.283 666.979,787.484 549.717,787.484C432.456,787.484 337.255,692.283 337.255,575.022C337.255,457.76 432.456,362.559 549.717,362.559Z" style="fill:white;"/>
            </g>
        </g>
        <g transform="matrix(0.943218,0,0,1.31347,1163.21,45.8384)">
            <g transform="matrix(5.17335e-17,-0.606711,1.39322,6.12621e-17,-1490.65,557.068)">
                <path d="M710.816,506.441C714.65,502.742 714.89,498.076 711.442,494.239C707.993,490.403 701.396,487.996 694.191,487.946L406.7,485.946C399.448,485.895 392.724,488.241 389.15,492.068C385.576,495.895 385.717,500.598 389.519,504.344L532.764,645.485C536.37,649.037 542.744,651.209 549.623,651.229C556.501,651.249 562.909,649.114 566.57,645.582L710.816,506.441ZM658.192,511.84L549.897,616.303C549.897,616.303 442.352,510.339 442.352,510.339L658.192,511.84Z" style="fill:white;"/>
            </g>
        </g>
    </g>
</svg>
