<?xml version="1.0" encoding="UTF-8" standalone="no"?>
<!DOCTYPE svg PUBLIC "-//W3C//DTD SVG 1.1//EN" "http://www.w3.org/Graphics/SVG/1.1/DTD/svg11.dtd">
<svg width="100%" height="100%" viewBox="0 0 489 489" version="1.1" xmlns="http://www.w3.org/2000/svg" xmlns:xlink="http://www.w3.org/1999/xlink" xml:space="preserve" xmlns:serif="http://www.serif.com/" style="fill-rule:evenodd;clip-rule:evenodd;stroke-linejoin:round;stroke-miterlimit:2;">
    <g transform="matrix(1,0,0,1,-871.333,-1087.87)">
        <path d="M1115.52,1087.87C980.75,1087.87 871.333,1197.28 871.333,1332.06C871.333,1466.83 980.75,1576.25 1115.52,1576.25C1250.29,1576.25 1359.71,1466.83 1359.71,1332.06C1359.71,1197.28 1250.29,1087.87 1115.52,1087.87ZM1115.52,1119.59C1232.78,1119.59 1327.99,1214.79 1327.99,1332.06C1327.99,1449.32 1232.78,1544.52 1115.52,1544.52C998.261,1544.52 903.06,1449.32 903.06,1332.06C903.06,1214.79 998.261,1119.59 1115.52,1119.59ZM1055.53,1283.05C1033.01,1290.77 1016.81,1312.13 1016.81,1337.25L1016.81,1493.66C1016.81,1502.43 1023.91,1509.53 1032.67,1509.53L1198.38,1509.53C1207.14,1509.53 1214.24,1502.43 1214.24,1493.66L1214.24,1337.25C1214.24,1312.57 1198.6,1291.51 1176.69,1283.46C1188.53,1269.6 1195.68,1251.61 1195.68,1231.97C1195.68,1188.15 1160.1,1152.58 1116.29,1152.58C1072.47,1152.58 1036.9,1188.15 1036.9,1231.97C1036.9,1251.42 1043.9,1269.24 1055.53,1283.05ZM1182.51,1337.25L1182.51,1477.8C1182.51,1477.8 1048.53,1477.8 1048.53,1477.8C1048.53,1477.8 1048.53,1337.25 1048.53,1337.25C1048.53,1323.14 1059.99,1311.69 1074.1,1311.69C1074.1,1311.69 1156.95,1311.69 1156.95,1311.69C1171.06,1311.69 1182.51,1323.14 1182.51,1337.25ZM1116.29,1184.31C1142.59,1184.31 1163.95,1205.66 1163.95,1231.97C1163.95,1258.28 1142.59,1279.63 1116.29,1279.63C1089.98,1279.63 1068.62,1258.28 1068.62,1231.97C1068.62,1205.66 1089.98,1184.31 1116.29,1184.31Z" style="fill:white;"/>
    </g>
</svg>
